<mxfile host="app.diagrams.net" modified="2023-11-20T07:39:33.184Z" agent="Mozilla/5.0 (Windows NT 10.0; Win64; x64) AppleWebKit/537.36 (KHTML, like Gecko) Chrome/118.0.0.0 Safari/537.36" version="22.1.3" etag="mSPfCyd-lM_8LctuiTdi" type="github">
  <diagram name="第 1 页" id="hBbX9hVTvYs_DciJ4_NY">
    <mxGraphModel>
      <root>
        <mxCell id="0" />
        <mxCell id="1" parent="0" />
      </root>
    </mxGraphModel>
  </diagram>
</mxfile>
